<svg xmlns="http://www.w3.org/2000/svg" viewBox="0 0 240 240"><defs><radialGradient id="hgcockpit" cx="50%" cy="50%" r="50%"><stop offset="0" stop-color="#52b6d6" stop-opacity=".55"/><stop offset="1" stop-color="#52b6d6" stop-opacity="0"/></radialGradient><linearGradient id="mgcockpit" x1="0" y1="0" x2="0" y2="1"><stop offset="0" stop-color="#fff"/><stop offset=".55" stop-color="#e7eefc"/><stop offset="1" stop-color="#c2d0ee"/></linearGradient></defs><g transform="translate(120,120) rotate(-14)"><ellipse rx="101" ry="40" fill="none" stroke="rgba(150,185,235,.12)" stroke-width="1"/><g transform="rotate(0.0)"><g transform="translate(101,0)"><circle r="6.2" fill="#52b6d6" opacity=".14"/><circle r="2.9" fill="#52b6d6"/><circle r="1" fill="#fff"/></g></g><g transform="rotate(180.0)"><g transform="translate(101,0)"><circle r="6.2" fill="#8b87f2" opacity=".14"/><circle r="2.9" fill="#8b87f2"/><circle r="1" fill="#fff"/></g></g><animateTransform attributeName="transform" attributeType="XML" type="rotate" from="0 120 120" to="360 120 120" dur="48s" repeatCount="indefinite" additive="sum"/></g><g transform="translate(120,120) rotate(-14)"><ellipse rx="78" ry="30" fill="none" stroke="rgba(150,185,235,.12)" stroke-width="1"/><g transform="rotate(0.0)"><g transform="translate(78,0)"><circle r="6.2" fill="#2ecf8f" opacity=".14"/><circle r="2.9" fill="#2ecf8f"/><circle r="1" fill="#fff"/></g></g><g transform="rotate(120.0)"><g transform="translate(78,0)"><circle r="6.2" fill="#ff8a5c" opacity=".14"/><circle r="2.9" fill="#ff8a5c"/><circle r="1" fill="#fff"/></g></g><g transform="rotate(240.0)"><g transform="translate(78,0)"><circle r="6.2" fill="#c77dff" opacity=".14"/><circle r="2.9" fill="#c77dff"/><circle r="1" fill="#fff"/></g></g><animateTransform attributeName="transform" attributeType="XML" type="rotate" from="360 120 120" to="0 120 120" dur="34s" repeatCount="indefinite" additive="sum"/></g><g transform="translate(120,120) rotate(18)"><ellipse rx="56" ry="22" fill="none" stroke="rgba(150,185,235,.12)" stroke-width="1"/><g transform="rotate(0.0)"><g transform="translate(56,0)"><circle r="6.2" fill="#e9c46a" opacity=".14"/><circle r="2.9" fill="#e9c46a"/><circle r="1" fill="#fff"/></g></g><g transform="rotate(180.0)"><g transform="translate(56,0)"><circle r="6.2" fill="#52b6d6" opacity=".14"/><circle r="2.9" fill="#52b6d6"/><circle r="1" fill="#fff"/></g></g><animateTransform attributeName="transform" attributeType="XML" type="rotate" from="0 120 120" to="360 120 120" dur="22s" repeatCount="indefinite" additive="sum"/></g><polygon points="120.00,67.00 165.90,93.50 165.90,146.50 120.00,173.00 74.10,146.50 74.10,93.50" fill="none" stroke="#52b6d6" stroke-width="1.7" stroke-linejoin="round"/><polygon points="120.00,73.00 160.70,96.50 160.70,143.50 120.00,167.00 79.30,143.50 79.30,96.50" fill="none" stroke="#52b6d6" stroke-width="0.6" stroke-opacity=".4" stroke-linejoin="round"/><polygon points="120.00,67.00 165.90,93.50 165.90,146.50 120.00,173.00 74.10,146.50 74.10,93.50" fill="none" stroke="#fff" stroke-width="2.2" stroke-linecap="round" stroke-linejoin="round" stroke-dasharray="41.34 276.66"><animate attributeName="stroke-dashoffset" from="0" to="-318" dur="6s" repeatCount="indefinite"/></polygon><circle cx="120" cy="96.08" r="13.0" fill="url(#hgcockpit)"><animate attributeName="opacity" values="0.4;0.75;0.4" dur="4.6s" repeatCount="indefinite"/></circle><circle cx="120" cy="96.08" r="13.0" fill="url(#hgcockpit)" opacity="0.45"/><line x1="120" y1="146.0" x2="120" y2="104.39999999999999" stroke="#52b6d6" stroke-width="2.86" stroke-linecap="round"/><line x1="120" y1="146.0" x2="120" y2="104.39999999999999" stroke="#f4f8ff" stroke-width="1.3" stroke-linecap="round"/><path d="M94 146.0 L94 103.88 L120 124.68 L146 103.88 L146 146.0" fill="none" stroke="url(#mgcockpit)" stroke-width="4.42" stroke-linecap="round" stroke-linejoin="round"/><line x1="120" y1="124.68" x2="120" y2="104.39999999999999" stroke="#52b6d6" stroke-width="2.86" stroke-linecap="round"/><line x1="120" y1="124.68" x2="120" y2="104.39999999999999" stroke="#f4f8ff" stroke-width="1.3" stroke-linecap="round"/><line x1="112.2" y1="125.2" x2="127.8" y2="125.2" stroke="#52b6d6" stroke-width="1.3" stroke-linecap="round" stroke-opacity=".9"/><circle cx="120" cy="96.08" r="4.16" fill="#f4f8ff" stroke="#52b6d6" stroke-width="1.56"/></svg>